<svg id="eKWBEmIJ5yF1" xmlns="http://www.w3.org/2000/svg" xmlns:xlink="http://www.w3.org/1999/xlink" viewBox="0 0 106 108" shape-rendering="geometricPrecision" text-rendering="geometricPrecision"><g id="eKWBEmIJ5yF2" transform="matrix(1 0 0 1 -0.475003 17.820003)"><g id="eKWBEmIJ5yF3"><line id="eKWBEmIJ5yF4" x1="50.48" y1="30.28" x2="105.65" y2="30.28" fill="none" stroke="rgb(200,38,2)" stroke-width="2.61" stroke-linecap="round" stroke-linejoin="round"/><line id="eKWBEmIJ5yF5" x1="59.76" y1="24.08" x2="67.15" y2="24.08" fill="none" stroke="rgb(200,38,2)" stroke-width="2.61" stroke-linecap="round" stroke-linejoin="round"/><g id="eKWBEmIJ5yF6" transform="matrix(1 0 0 1 0.000001 0)"><line id="eKWBEmIJ5yF7" x1="88.55" y1="24.56" x2="95.31" y2="17.8" fill="none" stroke="rgb(200,38,2)" stroke-width="2.61" stroke-linecap="round" stroke-linejoin="round"/><line id="eKWBEmIJ5yF8" x1="95.31" y1="24.56" x2="88.55" y2="17.8" fill="none" stroke="rgb(200,38,2)" stroke-width="2.61" stroke-linecap="round" stroke-linejoin="round"/></g><path id="eKWBEmIJ5yF9" d="M21.75,40C18.68,42.89,15.34,47.36,15.42,53L21.16,53" fill="none" stroke="rgb(200,38,2)" stroke-width="2.61" stroke-linecap="round" stroke-linejoin="round"/><path id="eKWBEmIJ5yF10" d="M42.63,40C45.7,42.88,49,47.35,49,53L43.22,53" fill="none" stroke="rgb(200,38,2)" stroke-width="2.61" stroke-linecap="round" stroke-linejoin="round"/><line id="eKWBEmIJ5yF11" x1="24.69" y1="13.41" x2="39.69" y2="13.41" fill="none" stroke="rgb(200,38,2)" stroke-width="2.61" stroke-linecap="round" stroke-linejoin="round"/><path id="eKWBEmIJ5yF12" d="M34.9,21.12C34.904048,20.023006,34.24635,19.031777,33.23402,18.609168C32.22169,18.186559,31.054434,18.41594,30.277304,19.190202C29.500175,19.964464,29.26648,21.130863,29.685344,22.144749C30.104208,23.158635,31.092999,23.819993,32.19,23.82C33.682795,23.82001,34.894492,22.612785,34.9,21.12Z" fill="none" stroke="rgb(0,0,0)" stroke-width="2.61" stroke-linecap="round" stroke-linejoin="round"/><path id="eKWBEmIJ5yF13" d="M34.9,31C34.9,29.503308,33.686692,28.29,32.19,28.29C30.693308,28.29,29.48,29.503308,29.48,31C29.48,32.496692,30.693308,33.71,32.19,33.71C32.909552,33.71267,33.600403,33.42801,34.109207,32.919207C34.61801,32.410403,34.90267,31.719552,34.9,31Z" fill="none" stroke="rgb(0,0,0)" stroke-width="2.61" stroke-linecap="round" stroke-linejoin="round"/><path id="eKWBEmIJ5yF14" d="M34.9,40.93C34.9,39.433308,33.686692,38.22,32.19,38.22C30.693308,38.22,29.48,39.433308,29.48,40.93C29.48,42.426692,30.693308,43.64,32.19,43.64C32.908737,43.64,33.598036,43.354483,34.106259,42.846259C34.614483,42.338036,34.9,41.648737,34.9,40.93Z" fill="none" stroke="rgb(0,0,0)" stroke-width="2.61" stroke-linecap="round" stroke-linejoin="round"/><path id="eKWBEmIJ5yF15" d="M47,11.92L96.2,11.92C98.706296,11.92,101.10994,12.915622,102.882159,14.687841C104.654378,16.46006,105.65,18.863704,105.65,21.37L105.65,80.72C105.652654,83.228028,104.658204,85.634242,102.885697,87.408624C101.113191,89.183007,98.708029,90.180001,96.2,90.18L10.76,90.18C8.251052,90.18,5.844864,89.183324,4.07077,87.40923C2.296676,85.635136,1.3,83.228948,1.3,80.72L1.3,21.37C1.305519,16.149292,5.539289,11.919997,10.76,11.92L17.83,11.92" fill="none" stroke="rgb(200,38,2)" stroke-width="2.61" stroke-linecap="round" stroke-linejoin="round"/><line id="eKWBEmIJ5yF16" x1="1.3" y1="30.28" x2="14.24" y2="30.28" fill="none" stroke="rgb(200,38,2)" stroke-width="2.61" stroke-linecap="round" stroke-linejoin="round"/><rect id="eKWBEmIJ5yF17" width="5.8" height="5.8" rx="0" ry="0" transform="matrix(1 0 0 1 74.400002 18.280001)" fill="none" stroke="rgb(200,38,2)" stroke-width="2.61" stroke-linecap="round" stroke-linejoin="round"/><path id="eKWBEmIJ5yF18" d="M41.88,43.37C48.5,17.62,32.19,1.3,32.19,1.3C32.19,1.3,15.88,17.62,22.5,43.37" fill="none" stroke="rgb(200,38,2)" stroke-width="2.61" stroke-linecap="round" stroke-linejoin="round"/><line id="eKWBEmIJ5yF19" x1="63.26" y1="49.09" x2="91.96" y2="49.09" fill="none" stroke="rgb(200,38,2)" stroke-width="2.61" stroke-linecap="round" stroke-linejoin="round"/><line id="eKWBEmIJ5yF20" x1="63.26" y1="59.53" x2="91.96" y2="59.53" fill="none" stroke="rgb(200,38,2)" stroke-width="2.61" stroke-linecap="round" stroke-linejoin="round"/><line id="eKWBEmIJ5yF21" x1="63.26" y1="69.96" x2="77.61" y2="69.96" fill="none" stroke="rgb(200,38,2)" stroke-width="2.61" stroke-linecap="round" stroke-linejoin="round"/><path id="eKWBEmIJ5yF22" d="M27.27,51.77C23.9,61.16,32.19,67.1,32.19,67.1C32.19,67.1,40.47,61.16,37.11,51.77" fill="none" stroke="rgb(0,0,0)" stroke-width="2.61" stroke-linecap="round" stroke-linejoin="round"/><line id="eKWBEmIJ5yF23" x1="36.45" y1="78.99" x2="36.45" y2="72.84" fill="none" stroke="rgb(0,0,0)" stroke-width="2.61" stroke-linecap="round" stroke-linejoin="round"/><line id="eKWBEmIJ5yF24" x1="44.98" y1="81.86" x2="44.98" y2="61.47" fill="none" stroke="rgb(0,0,0)" stroke-width="2.61" stroke-linecap="round" stroke-linejoin="round"/><line id="eKWBEmIJ5yF25" x1="27.93" y1="83.38" x2="27.93" y2="72.71" fill="none" stroke="rgb(0,0,0)" stroke-width="2.61" stroke-linecap="round" stroke-linejoin="round"/><line id="eKWBEmIJ5yF26" x1="19.4" y1="75.04" x2="19.4" y2="61.56" fill="none" stroke="rgb(0,0,0)" stroke-width="2.61" stroke-linecap="round" stroke-linejoin="round"/></g></g><g id="eKWBEmIJ5yF27" transform="matrix(1 0 0 1 74.149543 -0.464129)"><line id="eKWBEmIJ5yF28" x1="88.55" y1="17.8" x2="91.419693" y2="19.003068" transform="matrix(1 0 0 1 -70.734235 -10.374115)" fill="none" stroke="rgb(200,38,2)" stroke-width="2.61" stroke-linecap="round" stroke-linejoin="round"/><line id="eKWBEmIJ5yF29" x1="88.55" y1="17.8" x2="91.419693" y2="19.003068" transform="matrix(0 -1 1 0 -4.155247 99.447112)" fill="none" stroke="rgb(200,38,2)" stroke-width="2.61" stroke-linecap="round" stroke-linejoin="round"/><line id="eKWBEmIJ5yF30" x1="88.55" y1="17.8" x2="91.419693" y2="19.003068" transform="matrix(0 1 -1 0 36.511112 -86.984219)" fill="none" stroke="rgb(200,38,2)" stroke-width="2.61" stroke-linecap="round" stroke-linejoin="round"/><line id="eKWBEmIJ5yF31" x1="88.55" y1="17.8" x2="91.419693" y2="19.003068" transform="matrix(1 0 0 1 -77.173406 -13.96606)" fill="none" stroke="rgb(200,38,2)" stroke-width="2.61" stroke-linecap="round" stroke-linejoin="round"/></g><g id="eKWBEmIJ5yF32" transform="matrix(1 0 0 1 45.113533 11.97458)"><line id="eKWBEmIJ5yF33" x1="88.55" y1="17.8" x2="91.419693" y2="19.003068" transform="matrix(1 0 0 1 -70.734235 -10.374115)" fill="none" stroke="rgb(200,38,2)" stroke-width="2.61" stroke-linecap="round" stroke-linejoin="round"/><line id="eKWBEmIJ5yF34" x1="88.55" y1="17.8" x2="91.419693" y2="19.003068" transform="matrix(0 -1 1 0 -4.155247 99.447112)" fill="none" stroke="rgb(200,38,2)" stroke-width="2.61" stroke-linecap="round" stroke-linejoin="round"/><line id="eKWBEmIJ5yF35" x1="88.55" y1="17.8" x2="91.419693" y2="19.003068" transform="matrix(0 1 -1 0 36.511112 -86.984219)" fill="none" stroke="rgb(200,38,2)" stroke-width="2.61" stroke-linecap="round" stroke-linejoin="round"/><line id="eKWBEmIJ5yF36" x1="88.55" y1="17.8" x2="91.419693" y2="19.003068" transform="matrix(1 0 0 1 -77.173406 -13.96606)" fill="none" stroke="rgb(200,38,2)" stroke-width="2.61" stroke-linecap="round" stroke-linejoin="round"/></g><g id="eKWBEmIJ5yF37"><line id="eKWBEmIJ5yF38" x1="88.55" y1="17.8" x2="91.419693" y2="19.003068" transform="matrix(1 0 0 1 -70.734235 -10.374115)" fill="none" stroke="rgb(200,38,2)" stroke-width="2.61" stroke-linecap="round" stroke-linejoin="round"/><line id="eKWBEmIJ5yF39" x1="88.55" y1="17.8" x2="91.419693" y2="19.003068" transform="matrix(0 -1 1 0 -4.155247 99.447112)" fill="none" stroke="rgb(200,38,2)" stroke-width="2.61" stroke-linecap="round" stroke-linejoin="round"/><line id="eKWBEmIJ5yF40" x1="88.55" y1="17.8" x2="91.419693" y2="19.003068" transform="matrix(0 1 -1 0 36.511112 -86.984219)" fill="none" stroke="rgb(200,38,2)" stroke-width="2.61" stroke-linecap="round" stroke-linejoin="round"/><line id="eKWBEmIJ5yF41" x1="88.55" y1="17.8" x2="91.419693" y2="19.003068" transform="matrix(1 0 0 1 -77.173406 -13.96606)" fill="none" stroke="rgb(200,38,2)" stroke-width="2.61" stroke-linecap="round" stroke-linejoin="round"/></g></svg>