<svg id="eNixchaD64o1" xmlns="http://www.w3.org/2000/svg" xmlns:xlink="http://www.w3.org/1999/xlink" viewBox="0 0 97.29 106.96" shape-rendering="geometricPrecision" text-rendering="geometricPrecision"><g id="eNixchaD64o2"><g id="eNixchaD64o3"><path id="eNixchaD64o4" d="M80.79,1.3L16.5,1.3C8.107558,1.305516,1.305516,8.107558,1.3,16.5L1.3,66.92C1.3,75.314728,8.105272,82.12,16.5,82.12L44.5,82.12C44.991026,82.119017,45.462301,82.313283,45.81,82.66L68.26,105.11C68.789159,105.640664,69.58619,105.79967,70.278469,105.512681C70.970748,105.225692,71.421503,104.549407,71.42,103.8L71.42,84C71.417338,83.510271,71.610019,83.039687,71.955375,82.692454C72.300731,82.345221,72.770264,82.149993,73.26,82.15L80.83,82.15C84.862112,82.144705,88.72668,80.536503,91.572183,77.679745C94.417686,74.822987,96.010621,70.952101,96,66.92L96,16.5C96.000001,12.466976,94.397204,8.59928,91.544488,5.74844C88.691772,2.897599,84.823023,1.297347,80.79,1.3Z" transform="matrix(1 0 0 1 0.19944 0)" fill="none" stroke="rgb(200,38,2)" stroke-width="2.61" stroke-linecap="round" stroke-linejoin="round"/><path id="eNixchaD64o5" d="M31,65.16C34.505541,65.751892,37.922481,66.783357,41.17,68.23C44.9,70,50.79,70.77,56,70.77C62,70.77,71.28,70.05,72,62.08C74.22,60.32,75.76,56.89,74.8,54.08C76.52,51.81,77.52,48.08,75.53,45.71C80.61,37,66,33.13,59.44,32.37" fill="none" stroke="rgb(0,0,0)" stroke-width="2.61" stroke-linecap="round" stroke-linejoin="round"/><path id="eNixchaD64o6" d="M53.66,45C57.18,41.42,55.57,36.44,54.96,35.28C54.257072,33.715726,54.447975,31.89451,55.46,30.51C56.08,29.39,57.3,27.1,57.84,25.97C60.84,19.62,58,12.38,53.34,12.55C50.2,12.66,49.34,15.28,49.03,17.37C48.554581,21.24442,46.967315,24.898257,44.46,27.89C41.65437,30.898374,39.186349,34.204718,37.1,37.75C36.02,39.56,33.3,40.43,30.75,40.75" fill="none" stroke="rgb(0,0,0)" stroke-width="2.61" stroke-linecap="round" stroke-linejoin="round"/><rect id="eNixchaD64o7" width="10.48" height="30.690001" rx="0" ry="0" transform="matrix(1 0 0 1 20.46944 36.900002)" fill="none" stroke="rgb(200,38,2)" stroke-width="2.61" stroke-linecap="round" stroke-linejoin="round"/></g></g></svg>