<svg id="eMEHVCJjLXS1" xmlns="http://www.w3.org/2000/svg" xmlns:xlink="http://www.w3.org/1999/xlink" viewBox="0 0 105.11 106.96" shape-rendering="geometricPrecision" text-rendering="geometricPrecision"><g id="eMEHVCJjLXS2"><g id="eMEHVCJjLXS3"><path id="eMEHVCJjLXS4" d="M84.91,22.55L94.52,22.55C96.983861,22.55,99.346809,23.528765,101.089022,25.270978C102.831235,27.013191,103.81,29.376139,103.81,31.84L103.81,84.9C103.81,90.030725,99.650725,94.19,94.52,94.19L10.59,94.19C5.459275,94.19,1.3,90.030725,1.3,84.9L1.3,31.84C1.3,26.709275,5.459275,22.55,10.59,22.55L19.88,22.55" transform="matrix(1 0 0 1 -0.598323 0)" fill="none" stroke="rgb(200,38,2)" stroke-width="2.61" stroke-linecap="round" stroke-linejoin="round"/><line id="eMEHVCJjLXS5" x1="50.58" y1="22.55" x2="53.51" y2="22.55" transform="matrix(1 0 0 1 -0.398882 0)" fill="none" stroke="rgb(200,38,2)" stroke-width="2.61" stroke-linecap="round" stroke-linejoin="round"/><line id="eMEHVCJjLXS6" x1="49.63" y1="87.93" x2="55.48" y2="87.93" transform="matrix(1 0 0 1 -0.398882 0)" fill="none" stroke="rgb(200,38,2)" stroke-width="2.61" stroke-linecap="round" stroke-linejoin="round"/><line id="eMEHVCJjLXS7" x1="1.3" y1="82.23" x2="103.81" y2="82.23" transform="matrix(1 0 0 1 -0.398882 0)" fill="none" stroke="rgb(200,38,2)" stroke-width="2.61" stroke-linecap="round" stroke-linejoin="round"/><line id="eMEHVCJjLXS8" x1="42.71" y1="105.65" x2="43.77" y2="94.16" transform="matrix(1 0 0 1 -0.398882 0)" fill="none" stroke="rgb(200,38,2)" stroke-width="2.61" stroke-linecap="round" stroke-linejoin="round"/><line id="eMEHVCJjLXS9" x1="61.34" y1="94.16" x2="62.4" y2="105.65" transform="matrix(1 0 0 1 -0.398882 0)" fill="none" stroke="rgb(200,38,2)" stroke-width="2.61" stroke-linecap="round" stroke-linejoin="round"/><line id="eMEHVCJjLXS10" x1="32.61" y1="105.65" x2="72.51" y2="105.65" transform="matrix(1 0 0 1 -0.398882 0)" fill="none" stroke="rgb(200,38,2)" stroke-width="2.61" stroke-linecap="round" stroke-linejoin="round"/><path id="eMEHVCJjLXS11" d="M28.9,50.72C25.312041,49.566225,22.318394,47.053572,20.56,43.72C18.808906,40.159572,18.710186,36.009666,20.29,32.37C21.59,29.37,23.91,27.1,26.11,24.78C28.31,22.46,30.38,19.98,31.11,16.78C31.317708,15.907966,31.431688,15.016242,31.45,14.12C31.45,13.61,31.45,13.12,31.45,12.61C31.399937,12.353095,31.376479,12.091714,31.38,11.83C31.43,11.83,31.65,11.94,31.69,11.96L32.37,12.31C34.228785,13.338031,35.983643,14.543658,37.61,15.91C40.120507,17.95264,42.311406,20.359259,44.11,23.05C46.238623,26.270288,47.606493,29.93276,48.11,33.76C48.246637,34.821139,48.313448,35.890106,48.31,36.96C48.146434,43.060637,44.303073,48.453996,38.59,50.6" transform="matrix(1 0 0 1 -0.235578 0)" fill="none" stroke="rgb(0,0,0)" stroke-width="2.61" stroke-linecap="round" stroke-linejoin="round"/><path id="eMEHVCJjLXS12" d="M38.57,50.53C37.07957,50.014738,35.505604,49.784071,33.93,49.85C32.240513,49.853357,30.559021,50.08204,28.93,50.53L26.87,57.53C29.121199,57.028687,31.424058,56.797058,33.73,56.84C36.039222,56.797682,38.345317,57.029299,40.6,57.53Z" transform="matrix(1 0 0 1 -0.398882 0)" fill="none" stroke="rgb(200,38,2)" stroke-width="2.61" stroke-linecap="round" stroke-linejoin="round"/><path id="eMEHVCJjLXS13" d="M26,82.23C24.019469,74.084949,24.327463,65.551088,26.89,57.57" transform="matrix(1 0 0 1 -0.398882 0)" fill="none" stroke="rgb(200,38,2)" stroke-width="2.61" stroke-linecap="round" stroke-linejoin="round"/><path id="eMEHVCJjLXS14" d="M40.63,57.57C43.192537,65.551088,43.500531,74.084949,41.52,82.23" transform="matrix(1 0 0 1 -0.398882 0)" fill="none" stroke="rgb(200,38,2)" stroke-width="2.61" stroke-linecap="round" stroke-linejoin="round"/><path id="eMEHVCJjLXS15" d="M26.05,42.51C24.486225,39.734384,24.396375,36.365013,25.81,33.51C27,31.2,29,29.39,31,27.56" transform="matrix(1 0 0 1 -0.235578 0)" fill="none" stroke="rgb(0,0,0)" stroke-width="2.61" stroke-linecap="round" stroke-linejoin="round"/><path id="eMEHVCJjLXS16" d="M30.4,76.23C30.001329,72.185596,30.145947,68.106022,30.83,64.1" transform="matrix(1 0 0 1 -0.398882 0)" fill="none" stroke="rgb(200,38,2)" stroke-width="2.61" stroke-linecap="round" stroke-linejoin="round"/><path id="eMEHVCJjLXS17" d="M80,82.23L80,29C80.009504,27.181597,79.3914,25.415587,78.25,24L68.44,11.84L59.14,24.12C58.097414,25.495649,57.532142,27.173908,57.53,28.9L57.53,82.23" transform="matrix(1 0 0 1 -0.398882 0)" fill="none" stroke="rgb(200,38,2)" stroke-width="2.61" stroke-linecap="round" stroke-linejoin="round"/><line id="eMEHVCJjLXS18" x1="80.03" y1="33.39" x2="57.53" y2="33.39" transform="matrix(1 0 0 1 -0.398882 0)" fill="none" stroke="rgb(200,38,2)" stroke-width="2.61" stroke-linecap="round" stroke-linejoin="round"/><line id="eMEHVCJjLXS19" x1="74.21" y1="19.01" x2="63.08" y2="19.01" transform="matrix(1 0 0 1 -0.398882 0)" fill="none" stroke="rgb(200,38,2)" stroke-width="2.61" stroke-linecap="round" stroke-linejoin="round"/><line id="eMEHVCJjLXS20" x1="73.4" y1="40.4" x2="73.4" y2="73.74" transform="matrix(1 0 0 1 -0.235578 0)" fill="none" stroke="rgb(0,0,0)" stroke-width="2.61" stroke-linecap="round" stroke-linejoin="round"/><line id="eMEHVCJjLXS21" x1="64.47" y1="40.4" x2="64.47" y2="73.74" transform="matrix(1 0 0 1 -0.235578 0)" fill="none" stroke="rgb(0,0,0)" stroke-width="2.61" stroke-linecap="round" stroke-linejoin="round"/><line id="eMEHVCJjLXS22" x1="19.8" y1="53.23" x2="20.15" y2="52.87" transform="matrix(1 0 0 1 -0.398882 0)" fill="none" stroke="rgb(200,38,2)" stroke-width="2.61" stroke-linecap="round" stroke-linejoin="round"/><line id="eMEHVCJjLXS23" x1="14.78" y1="58.24" x2="15.13" y2="57.89" transform="matrix(1 0 0 1 -0.398882 0)" fill="none" stroke="rgb(200,38,2)" stroke-width="2.61" stroke-linecap="round" stroke-linejoin="round"/><line id="eMEHVCJjLXS24" x1="15.13" y1="53.23" x2="14.78" y2="52.87" transform="matrix(1 0 0 1 -0.398882 0)" fill="none" stroke="rgb(200,38,2)" stroke-width="2.61" stroke-linecap="round" stroke-linejoin="round"/><line id="eMEHVCJjLXS25" x1="20.15" y1="58.24" x2="19.8" y2="57.89" transform="matrix(1 0 0 1 -0.398882 0)" fill="none" stroke="rgb(200,38,2)" stroke-width="2.61" stroke-linecap="round" stroke-linejoin="round"/><line id="eMEHVCJjLXS26" x1="21.46" y1="9.05" x2="21.81" y2="8.69" transform="matrix(1 0 0 1 -0.598323 0)" fill="none" stroke="rgb(200,38,2)" stroke-width="2.61" stroke-linecap="round" stroke-linejoin="round"/><line id="eMEHVCJjLXS27" x1="16.45" y1="14.06" x2="16.8" y2="13.71" transform="matrix(1 0 0 1 -0.598323 0)" fill="none" stroke="rgb(200,38,2)" stroke-width="2.61" stroke-linecap="round" stroke-linejoin="round"/><line id="eMEHVCJjLXS28" x1="16.8" y1="9.05" x2="16.45" y2="8.69" transform="matrix(1 0 0 1 -0.598323 0)" fill="none" stroke="rgb(200,38,2)" stroke-width="2.61" stroke-linecap="round" stroke-linejoin="round"/><line id="eMEHVCJjLXS29" x1="21.81" y1="14.06" x2="21.46" y2="13.71" transform="matrix(1 0 0 1 -0.398882 0)" fill="none" stroke="rgb(200,38,2)" stroke-width="2.61" stroke-linecap="round" stroke-linejoin="round"/><line id="eMEHVCJjLXS30" x1="88.37" y1="9.74" x2="88.72" y2="9.39" transform="matrix(1 0 0 1 -0.398882 0)" fill="none" stroke="rgb(200,38,2)" stroke-width="2.61" stroke-linecap="round" stroke-linejoin="round"/><line id="eMEHVCJjLXS31" x1="83.36" y1="14.75" x2="83.71" y2="14.4" transform="matrix(1 0 0 1 -0.398882 0)" fill="none" stroke="rgb(200,38,2)" stroke-width="2.61" stroke-linecap="round" stroke-linejoin="round"/><line id="eMEHVCJjLXS32" x1="83.71" y1="9.74" x2="83.36" y2="9.39" transform="matrix(1 0 0 1 -0.398882 0)" fill="none" stroke="rgb(200,38,2)" stroke-width="2.61" stroke-linecap="round" stroke-linejoin="round"/><line id="eMEHVCJjLXS33" x1="88.72" y1="14.75" x2="88.37" y2="14.4" transform="matrix(1 0 0 1 -0.199441 0)" fill="none" stroke="rgb(200,38,2)" stroke-width="2.61" stroke-linecap="round" stroke-linejoin="round"/><line id="eMEHVCJjLXS34" x1="89.23" y1="31.51" x2="90.51" y2="32.79" transform="matrix(1 0 0 1 -0.199441 0)" fill="none" stroke="rgb(200,38,2)" stroke-width="2.61" stroke-linecap="round" stroke-linejoin="round"/><line id="eMEHVCJjLXS35" x1="96.12" y1="38.41" x2="97.4" y2="39.68" fill="none" stroke="rgb(200,38,2)" stroke-width="2.61" stroke-linecap="round" stroke-linejoin="round"/><line id="eMEHVCJjLXS36" x1="89.23" y1="39.68" x2="90.51" y2="38.41" transform="matrix(1 0 0 1 -0.199441 0)" fill="none" stroke="rgb(200,38,2)" stroke-width="2.61" stroke-linecap="round" stroke-linejoin="round"/><line id="eMEHVCJjLXS37" x1="96.12" y1="32.79" x2="97.4" y2="31.51" fill="none" stroke="rgb(200,38,2)" stroke-width="2.61" stroke-linecap="round" stroke-linejoin="round"/><line id="eMEHVCJjLXS38" x1="91.63" y1="50" x2="91.98" y2="49.64" transform="matrix(1 0 0 1 -0.398882 0)" fill="none" stroke="rgb(200,38,2)" stroke-width="2.61" stroke-linecap="round" stroke-linejoin="round"/><line id="eMEHVCJjLXS39" x1="86.61" y1="55.01" x2="86.96" y2="54.66" transform="matrix(1 0 0 1 -0.398882 0)" fill="none" stroke="rgb(200,38,2)" stroke-width="2.61" stroke-linecap="round" stroke-linejoin="round"/><line id="eMEHVCJjLXS40" x1="86.96" y1="50" x2="86.61" y2="49.64" transform="matrix(1 0 0 1 -0.398882 0)" fill="none" stroke="rgb(200,38,2)" stroke-width="2.61" stroke-linecap="round" stroke-linejoin="round"/><line id="eMEHVCJjLXS41" x1="91.98" y1="55.01" x2="91.63" y2="54.66" transform="matrix(1 0 0 1 -0.398882 0)" fill="none" stroke="rgb(200,38,2)" stroke-width="2.61" stroke-linecap="round" stroke-linejoin="round"/><line id="eMEHVCJjLXS42" x1="47.3" y1="1.3" x2="48.58" y2="2.58" transform="matrix(1 0 0 1 -0.398882 0)" fill="none" stroke="rgb(200,38,2)" stroke-width="2.61" stroke-linecap="round" stroke-linejoin="round"/><line id="eMEHVCJjLXS43" x1="54.2" y1="8.2" x2="55.47" y2="9.47" transform="matrix(1 0 0 1 -0.398882 0)" fill="none" stroke="rgb(200,38,2)" stroke-width="2.61" stroke-linecap="round" stroke-linejoin="round"/><line id="eMEHVCJjLXS44" x1="47.3" y1="9.47" x2="48.58" y2="8.2" transform="matrix(1 0 0 1 -0.398882 0)" fill="none" stroke="rgb(200,38,2)" stroke-width="2.61" stroke-linecap="round" stroke-linejoin="round"/><line id="eMEHVCJjLXS45" x1="54.2" y1="2.58" x2="55.47" y2="1.3" transform="matrix(1 0 0 1 -0.398882 0)" fill="none" stroke="rgb(200,38,2)" stroke-width="2.61" stroke-linecap="round" stroke-linejoin="round"/><line id="eMEHVCJjLXS46" x1="12.11" y1="32.73" x2="12.46" y2="32.37" transform="matrix(1 0 0 1 -0.398882 0)" fill="none" stroke="rgb(200,38,2)" stroke-width="2.61" stroke-linecap="round" stroke-linejoin="round"/><line id="eMEHVCJjLXS47" x1="7.09" y1="37.74" x2="7.45" y2="37.39" transform="matrix(1 0 0 1 -0.398882 0)" fill="none" stroke="rgb(200,38,2)" stroke-width="2.61" stroke-linecap="round" stroke-linejoin="round"/><line id="eMEHVCJjLXS48" x1="7.45" y1="32.73" x2="7.09" y2="32.37" transform="matrix(1 0 0 1 -0.398882 0)" fill="none" stroke="rgb(200,38,2)" stroke-width="2.61" stroke-linecap="round" stroke-linejoin="round"/><line id="eMEHVCJjLXS49" x1="12.46" y1="37.74" x2="12.11" y2="37.39" transform="matrix(1 0 0 1 -0.398882 0)" fill="none" stroke="rgb(200,38,2)" stroke-width="2.61" stroke-linecap="round" stroke-linejoin="round"/></g></g></svg>