<svg id="eqifKvUhXcD1" xmlns="http://www.w3.org/2000/svg" xmlns:xlink="http://www.w3.org/1999/xlink" viewBox="0 0 103.71 106.96" shape-rendering="geometricPrecision" text-rendering="geometricPrecision"><g id="eqifKvUhXcD2"><g id="eqifKvUhXcD3"><path id="eqifKvUhXcD4" d="M84.54,37.34C79.60228,37.34544,75.592993,33.350954,75.58017,28.413248C75.567347,23.475541,79.555834,19.460286,84.493516,19.44008C89.431198,19.419875,93.452412,23.402354,93.48,28.34C93.493301,30.720607,92.557606,33.00842,90.879876,34.69741C89.202146,36.3864,86.920643,37.337377,84.54,37.34Z" fill="none" stroke="rgb(200,38,2)" stroke-width="2.61" stroke-linecap="round" stroke-linejoin="round"/><path id="eqifKvUhXcD5" d="M94.93,57.52L94.93,72.17C94.92945,74.344464,96.666087,76.121075,98.84,76.17C99.853806,76.140638,100.810831,75.695285,101.486174,74.938598C102.161517,74.181911,102.495631,73.180609,102.41,72.17L102.41,51.17C102.41,48.966051,101.534485,46.85237,99.976057,45.293943C98.41763,43.735515,96.303949,42.86,94.1,42.86L76.9,42.86C75.36992,42.8589,73.902703,42.251156,72.82,41.17L71.06,39.41L61.65,30C60.097094,28.488452,57.622906,28.488452,56.07,30C54.54,31.53,54.81,33.79,56.36,35.35L59,38L62.57,41.56L65.72,44.72L71.33,50.32C73.130481,52.116754,74.14159,54.55637,74.14,57.1L74.14,75.12L74.14,75.12L74.14,101.34C74.14,103.72,75.67,105.65,78,105.65C80.354379,105.622534,82.242217,103.694434,82.22,101.34L82.22,79.48C82.217327,78.866534,82.459843,78.277422,82.893633,77.843633C83.327422,77.409843,83.916534,77.167327,84.53,77.17L84.53,77.17C85.143466,77.167327,85.732578,77.409843,86.166367,77.843633C86.600157,78.277422,86.842673,78.866534,86.84,79.48L86.84,101.34C86.817783,103.694434,88.705621,105.622534,91.06,105.65C93.39,105.65,94.92,103.72,94.92,101.34L94.92,75.12L94.92,75.12L94.92,52.43" fill="none" stroke="rgb(200,38,2)" stroke-width="2.61" stroke-linecap="round" stroke-linejoin="round"/><path id="eqifKvUhXcD6" d="M24.15,63.59L24.15,94.23C24.149999,97.260506,25.354547,100.166744,27.498375,102.308697C29.642204,104.45065,32.549495,105.652654,35.58,105.65L68.69,105.65" fill="none" stroke="rgb(200,38,2)" stroke-width="2.61" stroke-linecap="round" stroke-linejoin="round"/><path id="eqifKvUhXcD7" d="M91.18,14.57L91.18,12.73C91.182654,9.699495,89.98065,6.792204,87.838697,4.648375C85.696744,2.504547,82.790506,1.299999,79.76,1.3L12.76,1.3C19.059278,1.316546,24.155538,6.430703,24.15,12.73L24.15,23.15" fill="none" stroke="rgb(200,38,2)" stroke-width="2.61" stroke-linecap="round" stroke-linejoin="round"/><path id="eqifKvUhXcD8" d="M12.73,1.3C6.417385,1.3,1.3,6.417385,1.3,12.73L1.3,19.58L24.15,19.58" fill="none" stroke="rgb(200,38,2)" stroke-width="2.61" stroke-linecap="round" stroke-linejoin="round"/><line id="eqifKvUhXcD9" x1="44.84" y1="70.01" x2="61.29" y2="70.01" fill="none" stroke="rgb(200,38,2)" stroke-width="2.61" stroke-linecap="round" stroke-linejoin="round"/><line id="eqifKvUhXcD10" x1="44.84" y1="85.66" x2="51.99" y2="85.66" fill="none" stroke="rgb(200,38,2)" stroke-width="2.61" stroke-linecap="round" stroke-linejoin="round"/><line id="eqifKvUhXcD11" x1="44.84" y1="77.84" x2="61.29" y2="77.84" fill="none" stroke="rgb(200,38,2)" stroke-width="2.61" stroke-linecap="round" stroke-linejoin="round"/><line id="eqifKvUhXcD12" x1="36.71" y1="70.01" x2="38.45" y2="70.01" fill="none" stroke="rgb(0,0,0)" stroke-width="2.61" stroke-linecap="round" stroke-linejoin="round"/><line id="eqifKvUhXcD13" x1="36.71" y1="85.66" x2="38.45" y2="85.66" fill="none" stroke="rgb(0,0,0)" stroke-width="2.61" stroke-linecap="round" stroke-linejoin="round"/><line id="eqifKvUhXcD14" x1="36.71" y1="77.84" x2="38.45" y2="77.84" fill="none" stroke="rgb(0,0,0)" stroke-width="2.61" stroke-linecap="round" stroke-linejoin="round"/><circle id="eqifKvUhXcD15" r="14.06" transform="matrix(0.707107 -0.707107 0.707107 0.707107 30.07871 43.329165)" fill="none" stroke="rgb(0,0,0)" stroke-width="2.61" stroke-linecap="round" stroke-linejoin="round"/><line id="eqifKvUhXcD16" x1="30.08" y1="50.36" x2="30.08" y2="41.32" fill="none" stroke="rgb(0,0,0)" stroke-width="2.61" stroke-linecap="round" stroke-linejoin="round"/><line id="eqifKvUhXcD17" x1="30.08" y1="36.3" x2="30.08" y2="36.3" fill="none" stroke="rgb(0,0,0)" stroke-width="2.61" stroke-linecap="round" stroke-linejoin="round"/></g></g></svg>