<svg xmlns="http://www.w3.org/2000/svg" xmlns:xlink="http://www.w3.org/1999/xlink" viewBox="0 0 649.25 649.25"><defs><style>.cls-1{fill:url(#Gradient_bez_nazwy_15);}.cls-2{fill:#3a3a3a;}.cls-3{fill:#fff;}</style><linearGradient id="Gradient_bez_nazwy_15" y1="324.62" x2="649.25" y2="324.62" gradientUnits="userSpaceOnUse"><stop offset="0" stop-color="#ed5f47"/><stop offset="0.14" stop-color="#e95e47"/><stop offset="0.29" stop-color="#dd5c46"/><stop offset="0.44" stop-color="#c95744"/><stop offset="0.59" stop-color="#ac5242"/><stop offset="0.73" stop-color="#874a40"/><stop offset="0.88" stop-color="#5b413c"/><stop offset="0.98" stop-color="#3a3a3a"/></linearGradient></defs><g id="Warstwa_2" data-name="Warstwa 2"><g id="Warstwa_1-2" data-name="Warstwa 1"><circle class="cls-1" cx="324.62" cy="324.62" r="324.62"/><polygon class="cls-2" points="429.21 408.91 324.62 590.07 79.78 166 136.89 166 324.62 491.17 400.97 358.93 429.21 408.91"/><polygon class="cls-3" points="458.93 166 406.24 257.27 379.89 302.91 324.62 398.63 190.31 166 243.01 166 324.62 307.35 353.53 257.27 379.89 211.63 406.23 166 458.93 166"/><polygon class="cls-3" points="374.79 202.79 348.5 248.56 300.84 166 353.54 166 374.79 202.79"/><polygon class="cls-3" points="569.46 166 435.15 398.63 406.6 349.18 385.5 312.62 409.22 270.09 431.3 306.39 512.35 166 569.46 166"/></g></g></svg>